<?xml version="1.0" encoding="utf-8"?>
<svg viewBox="0 0 500 500" xmlns="http://www.w3.org/2000/svg">
  <path d="M 390.803 311.735 L 377.363 370.004 C 375.475 378.24 368.236 384.004 359.755 384.004 C 213.918 383.992 95.301 265.375 95.301 119.533 C 95.301 111.059 101.063 103.809 109.301 101.931 L 167.57 88.49 C 176.055 86.525 184.726 90.929 188.252 98.965 L 215.143 161.685 C 218.286 169.072 216.167 177.678 209.952 182.755 L 178.83 207.744 C 198.473 247.756 231.006 280.289 271.03 299.944 L 296.511 268.844 C 301.532 262.612 310.204 260.457 317.593 263.656 L 380.311 290.541 C 387.854 294.51 392.768 303.295 390.803 311.735 Z" style="fill: rgb(192, 186, 182);"/>
</svg>